<svg width="45" height="46" viewBox="0 0 45 46" fill="none" xmlns="http://www.w3.org/2000/svg">
<path d="M26.2793 46H10.5469C4.73132 46 0 41.1635 0 35.2188V10.7812C0 4.83646 4.73132 0 10.5469 0H26.6308C27.6017 0 28.3887 0.804498 28.3887 1.79692C28.3887 2.78933 27.6017 3.59383 26.6308 3.59383H10.5469C6.66981 3.59383 3.51562 6.81811 3.51562 10.7813V35.2189C3.51562 39.1821 6.66981 42.4063 10.5469 42.4063H26.2793C30.1563 42.4063 33.3105 39.1821 33.3105 35.2189V24.4375C33.3105 23.4451 34.0975 22.6406 35.0684 22.6406C36.0392 22.6406 36.8262 23.4451 36.8262 24.4375V35.2188C36.8261 41.1635 32.0949 46 26.2793 46ZM26.2723 21.2581L31.2525 20.2406C33.7223 19.7359 35.969 18.507 37.7499 16.6865L43.1208 11.1962C45.6224 8.63907 45.6224 4.47811 43.1208 1.92099C40.6191 -0.636223 36.5488 -0.636223 34.0472 1.92099L28.6763 7.41125C26.8954 9.23169 25.6932 11.5283 25.1994 14.0531L24.204 19.144C24.0889 19.7331 24.2692 20.342 24.6848 20.7668C25.0177 21.1071 25.4662 21.293 25.9277 21.293C26.0423 21.293 26.1576 21.2816 26.2723 21.2581ZM40.6349 4.46217C41.1827 5.02214 41.4845 5.76667 41.4845 6.55859C41.4845 7.35051 41.1827 8.09512 40.6349 8.65501L35.264 14.1453C33.9756 15.4623 32.3503 16.3514 30.5635 16.7164L28.1683 17.2058L28.647 14.7575C29.0042 12.9309 29.8739 11.2693 31.1623 9.95244L36.5332 4.46217C37.081 3.90221 37.8094 3.59374 38.5841 3.59374C39.3588 3.59374 40.0871 3.90221 40.6349 4.46217ZM28.0371 31.625H8.87692C7.90608 31.625 7.11907 30.8205 7.11907 29.8281C7.11907 28.8357 7.90608 28.0312 8.87692 28.0312H28.037C29.0079 28.0312 29.7949 28.8357 29.7949 29.8281C29.7949 30.8205 29.008 31.625 28.0371 31.625ZM18.5449 34.7695C17.3314 34.7695 16.3476 35.7751 16.3476 37.0156C16.3476 38.2561 17.3314 39.2617 18.5449 39.2617C19.7584 39.2617 20.7421 38.2561 20.7421 37.0156C20.7422 35.7751 19.7584 34.7695 18.5449 34.7695Z" fill="white"/>
</svg>
