<svg width="45" height="45" viewBox="0 0 45 45" fill="none" xmlns="http://www.w3.org/2000/svg">
<path d="M45 18.3692V38.6719C45 42.1612 42.1612 45 38.6719 45C37.0619 45 35.5277 44.3949 34.3519 43.296C33.6426 42.6332 33.6049 41.5208 34.2678 40.8115C34.9306 40.1022 36.0432 40.0646 36.7523 40.7274C37.2746 41.2155 37.9564 41.4843 38.672 41.4843C40.2228 41.4843 41.4845 40.2227 41.4845 38.6718C41.4845 37.121 40.2228 35.8593 38.672 35.8593H6.3281C2.83878 35.8593 0 33.0205 0 29.5312V1.75785C0 0.787009 0.787009 0 1.75785 0C2.7287 0 3.5157 0.787009 3.5157 1.75785C3.5157 3.30869 4.77735 4.57033 6.32818 4.57033H22.5001C23.4709 4.57033 24.2579 5.35734 24.2579 6.32818C24.2579 7.29903 23.4709 8.08603 22.5001 8.08603H6.3281C5.3184 8.08603 4.3634 7.84834 3.51562 7.42605V29.5313C3.51562 31.0822 4.77726 32.3438 6.3281 32.3438H38.6719C39.6819 32.3438 40.6365 32.5828 41.4844 33.0055V18.3692C41.4844 17.3983 42.2714 16.6113 43.2422 16.6113C44.2131 16.6113 45 17.3983 45 18.3692ZM24.204 18.7277L25.1994 13.7475C25.693 11.2777 26.8953 9.031 28.6763 7.25005L34.0471 1.87914C35.2589 0.667318 36.8702 0 38.584 0C40.2977 0 41.9089 0.667318 43.1207 1.87923C44.3325 3.09105 45 4.70224 45 6.41601C45 8.12978 44.3326 9.74097 43.1207 10.9528L37.7499 16.3237C35.9688 18.1046 33.7222 19.3068 31.2524 19.8005L26.2722 20.7959C26.1576 20.8188 26.0422 20.8301 25.9277 20.8301C25.4661 20.8301 25.0177 20.6481 24.6847 20.3152C24.2692 19.8997 24.0888 19.3039 24.204 18.7277ZM28.1681 16.8318L30.5634 16.353C32.35 15.9959 33.9754 15.1262 35.2638 13.8378L40.6347 8.46685C41.1825 7.91906 41.4843 7.19063 41.4843 6.41593C41.4843 5.64122 41.1825 4.9128 40.6348 4.36509C40.087 3.81729 39.3586 3.51554 38.5839 3.51554C37.8092 3.51554 37.0808 3.81729 36.5331 4.36509L31.1621 9.736C29.8737 11.0244 29.0039 12.6497 28.6469 14.4365L28.1681 16.8318ZM30.5859 26.8067C30.5859 25.8358 29.7989 25.0488 28.8281 25.0488H12.3047C11.3339 25.0488 10.5469 25.8358 10.5469 26.8067C10.5469 27.7775 11.3339 28.5645 12.3047 28.5645H28.8282C29.7989 28.5644 30.5859 27.7774 30.5859 26.8067ZM18.1933 21.9727H12.3046C11.3338 21.9727 10.5468 21.1857 10.5468 20.2148C10.5468 19.244 11.3338 18.457 12.3046 18.457H18.1933C19.1642 18.457 19.9512 19.244 19.9512 20.2148C19.9512 21.1857 19.1642 21.9727 18.1933 21.9727Z" fill="white"/>
</svg>
