<svg width="678" height="678" viewBox="0 0 678 678" fill="none" xmlns="http://www.w3.org/2000/svg">
<circle cx="339" cy="339" r="64.5714" fill="#18181C"/>
<circle cx="339" cy="339" r="129.719" stroke="#222228"/>
<circle cx="339" cy="339" r="189.986" stroke="#222228"/>
<circle cx="339" cy="339" r="189.986" stroke="#222228"/>
<circle cx="339" cy="339" r="254.557" stroke="#222228"/>
<circle opacity="0.5" cx="339" cy="339" r="338.5" stroke="#222228"/>
<circle cx="514" cy="266" r="33" fill="#1D2948"/>
<circle cx="274" cy="519" r="33" fill="white"/>
<circle cx="182" cy="241" r="33" fill="white"/>
<circle cx="398" cy="158" r="16" fill="url(#paint0_radial_542_32)" fill-opacity="0.3"/>
<circle cx="398" cy="158" r="9.05882" fill="url(#paint1_radial_542_32)"/>
<circle cx="453" cy="489" r="16" fill="url(#paint2_radial_542_32)" fill-opacity="0.3"/>
<circle cx="453" cy="489" r="9.05882" fill="url(#paint3_radial_542_32)"/>
<circle cx="157" cy="388" r="16" fill="url(#paint4_radial_542_32)" fill-opacity="0.3"/>
<circle cx="157" cy="388" r="9.05882" fill="url(#paint5_radial_542_32)"/>
<g clip-path="url(#clip0_542_32)">
<path fill-rule="evenodd" clip-rule="evenodd" d="M296.678 508.562C296.694 508.619 296.702 508.677 296.702 508.735V517.808C296.702 517.925 296.67 518.039 296.61 518.14C296.549 518.241 296.462 518.324 296.357 518.382L288.437 522.766V531.457C288.437 531.693 288.306 531.911 288.093 532.031L271.561 541.181C271.523 541.202 271.482 541.215 271.441 541.229C271.425 541.234 271.411 541.243 271.394 541.247C271.279 541.277 271.157 541.277 271.042 541.247C271.023 541.242 271.006 541.233 270.988 541.226C270.95 541.213 270.91 541.201 270.874 541.181L254.346 532.031C254.241 531.973 254.153 531.889 254.093 531.788C254.032 531.687 254 531.573 254 531.457V504.238C254 504.178 254.009 504.12 254.024 504.064C254.029 504.045 254.041 504.028 254.048 504.009C254.061 503.974 254.073 503.938 254.092 503.906C254.105 503.885 254.124 503.867 254.139 503.847C254.159 503.821 254.177 503.794 254.2 503.77C254.22 503.751 254.246 503.737 254.268 503.721C254.293 503.701 254.316 503.679 254.344 503.664L262.609 499.088C262.714 499.03 262.833 499 262.953 499C263.074 499 263.193 499.03 263.297 499.088L271.562 503.664H271.564C271.591 503.68 271.615 503.701 271.639 503.72C271.662 503.737 271.687 503.751 271.707 503.77C271.731 503.794 271.748 503.821 271.768 503.847C271.783 503.867 271.803 503.885 271.815 503.906C271.835 503.939 271.846 503.974 271.86 504.009C271.866 504.028 271.879 504.045 271.884 504.065C271.9 504.121 271.908 504.179 271.908 504.238V521.238L278.795 517.425V508.734C278.795 508.677 278.803 508.618 278.819 508.562C278.825 508.543 278.836 508.525 278.843 508.506C278.857 508.471 278.869 508.436 278.888 508.404C278.9 508.382 278.919 508.365 278.934 508.345C278.955 508.318 278.972 508.291 278.996 508.268C279.016 508.249 279.041 508.235 279.063 508.218C279.089 508.199 279.111 508.177 279.139 508.161L287.405 503.586C287.51 503.528 287.628 503.498 287.749 503.498C287.87 503.498 287.988 503.528 288.093 503.586L296.358 508.161C296.387 508.178 296.409 508.199 296.435 508.218C296.456 508.234 296.481 508.249 296.501 508.267C296.525 508.291 296.542 508.318 296.563 508.345C296.579 508.365 296.598 508.382 296.61 508.404C296.629 508.436 296.641 508.471 296.654 508.506C296.662 508.525 296.673 508.543 296.678 508.562ZM295.325 517.425V509.881L292.433 511.481L288.437 513.693V521.238L295.326 517.425H295.325ZM287.06 531.074V523.524L283.13 525.682L271.907 531.841V539.462L287.06 531.074ZM255.378 505.383V531.074L270.529 539.461V531.842L262.614 527.535L262.611 527.533L262.608 527.531C262.581 527.516 262.559 527.495 262.534 527.477C262.512 527.46 262.487 527.447 262.468 527.429L262.467 527.426C262.444 527.406 262.429 527.38 262.41 527.357C262.393 527.334 262.372 527.315 262.358 527.292L262.357 527.29C262.342 527.265 262.333 527.235 262.321 527.207C262.31 527.182 262.296 527.159 262.289 527.133C262.28 527.101 262.278 527.067 262.275 527.035C262.271 527.01 262.265 526.985 262.265 526.961V526.959V509.196L258.27 506.983L255.378 505.383ZM262.954 500.426L256.068 504.238L262.953 508.049L269.838 504.237L262.953 500.426H262.954ZM266.535 524.212L270.53 522.001V505.383L267.638 506.984L263.642 509.196V525.814L266.535 524.212ZM287.749 504.924L280.864 508.735L287.749 512.547L294.633 508.734L287.749 504.924ZM287.06 513.693L283.065 511.481L280.172 509.881V517.425L284.167 519.637L287.06 521.238V513.693ZM271.217 530.696L281.316 525.152L286.364 522.382L279.484 518.573L271.563 522.958L264.343 526.955L271.217 530.696Z" fill="#FF2D20"/>
</g>
<g clip-path="url(#clip1_542_32)">
<path d="M186.464 223L181.499 232.931L176.534 223H159.999L181.499 266L202.998 223H186.464Z" fill="#41B883"/>
<path d="M186.464 223L181.499 232.931L176.534 223H168.599L181.499 248.799L194.398 223H186.464Z" fill="#34495E"/>
</g>
<path fill-rule="evenodd" clip-rule="evenodd" d="M514.5 251C508.767 251 505.184 254.382 503.75 261.146C505.9 257.764 508.408 256.496 511.275 257.341C512.91 257.823 514.08 259.223 515.373 260.773C517.482 263.297 519.922 266.218 525.25 266.218C530.983 266.218 534.567 262.836 536 256.073C533.851 259.455 531.342 260.723 528.476 259.877C526.839 259.395 525.67 257.995 524.376 256.446C522.268 253.92 519.829 251 514.5 251ZM503.75 266.218C498.017 266.218 494.433 269.6 493 276.364C495.15 272.982 497.659 271.714 500.524 272.559C502.161 273.041 503.33 274.441 504.624 275.991C506.732 278.515 509.171 281.436 514.5 281.436C520.233 281.436 523.817 278.055 525.25 271.291C523.1 274.673 520.592 275.941 517.725 275.096C516.09 274.613 514.92 273.213 513.627 271.664C511.518 269.14 509.078 266.218 503.75 266.218Z" fill="#38BDF8"/>
<g clip-path="url(#clip2_542_32)">
<mask id="mask0_542_32" style="mask-type:luminance" maskUnits="userSpaceOnUse" x="339" y="303" width="38" height="71">
<path d="M339.667 303H376.275V373.984H339.667V303Z" fill="white"/>
</mask>
<g mask="url(#mask0_542_32)">
<mask id="mask1_542_32" style="mask-type:luminance" maskUnits="userSpaceOnUse" x="301" y="303" width="76" height="71">
<path d="M341.485 343.712V311.96C341.485 310.73 342.661 309.838 343.847 310.171L374.914 318.888C375.717 319.112 376.271 319.845 376.271 320.678V352.429C376.271 353.661 375.096 354.552 373.91 354.219L342.842 345.502C342.04 345.277 341.485 344.546 341.485 343.712ZM318.034 323.089L334.031 327.578C335.216 327.91 336.392 327.019 336.392 325.788V309.465C336.392 308.632 335.838 307.901 335.035 307.676L319.039 303.187C317.854 302.855 316.677 303.745 316.677 304.977V321.3C316.677 322.133 317.232 322.864 318.034 323.089ZM335.035 331.349L303.967 322.631C302.782 322.298 301.606 323.19 301.606 324.422V356.173C301.606 357.006 302.16 357.738 302.963 357.963L334.031 366.679C335.216 367.012 336.392 366.122 336.392 364.89V333.138C336.392 332.305 335.838 331.574 335.035 331.349ZM359.844 353.762L343.847 349.274C342.661 348.941 341.485 349.831 341.485 351.063V367.385C341.485 368.218 342.04 368.95 342.842 369.174L358.838 373.663C360.024 373.996 361.2 373.105 361.2 371.873V355.551C361.2 354.718 360.645 353.987 359.844 353.762Z" fill="white"/>
</mask>
<g mask="url(#mask1_542_32)">
<path d="M376.271 302.855H339.667V373.984H376.271V302.855Z" fill="url(#paint6_linear_542_32)"/>
</g>
</g>
<mask id="mask2_542_32" style="mask-type:luminance" maskUnits="userSpaceOnUse" x="303" y="303" width="37" height="71">
<path d="M303 303H339.608V373.975H303V303Z" fill="white"/>
</mask>
<g mask="url(#mask2_542_32)">
<mask id="mask3_542_32" style="mask-type:luminance" maskUnits="userSpaceOnUse" x="302" y="303" width="76" height="71">
<path d="M342.685 343.702V311.95C342.685 310.719 343.861 309.828 345.046 310.161L376.114 318.877C376.917 319.103 377.471 319.834 377.471 320.668V352.419C377.471 353.65 376.295 354.542 375.11 354.209L344.042 345.492C343.239 345.267 342.685 344.535 342.685 343.702ZM319.234 323.078L335.23 327.568C336.417 327.9 337.592 327.009 337.592 325.777V309.456C337.592 308.622 337.037 307.891 336.236 307.666L320.239 303.178C319.053 302.845 317.877 303.736 317.877 304.967V321.289C317.877 322.122 318.432 322.854 319.234 323.078ZM336.236 331.339L305.168 322.621C303.982 322.289 302.806 323.18 302.806 324.411V356.163C302.806 356.997 303.361 357.728 304.162 357.953L335.23 366.67C336.417 367.002 337.592 366.112 337.592 364.88V333.129C337.592 332.295 337.037 331.563 336.236 331.339ZM361.043 353.752L345.046 349.263C343.861 348.93 342.685 349.822 342.685 351.053V367.375C342.685 368.208 343.239 368.939 344.042 369.165L360.039 373.653C361.224 373.985 362.4 373.095 362.4 371.863V355.542C362.4 354.709 361.846 353.976 361.043 353.752Z" fill="white"/>
</mask>
<g mask="url(#mask3_542_32)">
<path d="M339.608 302.845H303V373.975H339.608V302.845Z" fill="url(#paint7_linear_542_32)"/>
</g>
</g>
</g>
<defs>
<radialGradient id="paint0_radial_542_32" cx="0" cy="0" r="1" gradientUnits="userSpaceOnUse" gradientTransform="translate(392.182 139.818) rotate(68.4287) scale(33.628 396.153)">
<stop stop-color="#FF9898"/>
<stop offset="1" stop-color="#8054FF"/>
</radialGradient>
<radialGradient id="paint1_radial_542_32" cx="0" cy="0" r="1" gradientUnits="userSpaceOnUse" gradientTransform="translate(394.706 147.706) rotate(68.4287) scale(19.0394 224.292)">
<stop stop-color="#FF9898"/>
<stop offset="1" stop-color="#8054FF"/>
</radialGradient>
<radialGradient id="paint2_radial_542_32" cx="0" cy="0" r="1" gradientUnits="userSpaceOnUse" gradientTransform="translate(447.182 470.818) rotate(68.4287) scale(33.628 396.153)">
<stop stop-color="#FF9898"/>
<stop offset="1" stop-color="#8054FF"/>
</radialGradient>
<radialGradient id="paint3_radial_542_32" cx="0" cy="0" r="1" gradientUnits="userSpaceOnUse" gradientTransform="translate(449.706 478.706) rotate(68.4287) scale(19.0394 224.292)">
<stop stop-color="#FF9898"/>
<stop offset="1" stop-color="#8054FF"/>
</radialGradient>
<radialGradient id="paint4_radial_542_32" cx="0" cy="0" r="1" gradientUnits="userSpaceOnUse" gradientTransform="translate(151.182 369.818) rotate(68.4287) scale(33.628 396.153)">
<stop stop-color="#FF9898"/>
<stop offset="1" stop-color="#8054FF"/>
</radialGradient>
<radialGradient id="paint5_radial_542_32" cx="0" cy="0" r="1" gradientUnits="userSpaceOnUse" gradientTransform="translate(153.706 377.706) rotate(68.4287) scale(19.0394 224.292)">
<stop stop-color="#FF9898"/>
<stop offset="1" stop-color="#8054FF"/>
</radialGradient>
<linearGradient id="paint6_linear_542_32" x1="383.384" y1="320.184" x2="327.071" y2="343.299" gradientUnits="userSpaceOnUse">
<stop stop-color="#C64FFF"/>
<stop offset="0.125" stop-color="#C64FFF"/>
<stop offset="0.15625" stop-color="#C54FFF"/>
<stop offset="0.164062" stop-color="#C54FFF"/>
<stop offset="0.171875" stop-color="#C44FFF"/>
<stop offset="0.179688" stop-color="#C44FFF"/>
<stop offset="0.1875" stop-color="#C34EFF"/>
<stop offset="0.195312" stop-color="#C34EFF"/>
<stop offset="0.203125" stop-color="#C24EFF"/>
<stop offset="0.210938" stop-color="#C24EFF"/>
<stop offset="0.21875" stop-color="#C14EFF"/>
<stop offset="0.226562" stop-color="#C14EFF"/>
<stop offset="0.234375" stop-color="#C04EFF"/>
<stop offset="0.242187" stop-color="#C04EFF"/>
<stop offset="0.25" stop-color="#BF4EFF"/>
<stop offset="0.257812" stop-color="#BF4EFF"/>
<stop offset="0.265625" stop-color="#BE4DFF"/>
<stop offset="0.273437" stop-color="#BE4DFF"/>
<stop offset="0.28125" stop-color="#BD4DFF"/>
<stop offset="0.289062" stop-color="#BD4DFF"/>
<stop offset="0.296875" stop-color="#BC4DFF"/>
<stop offset="0.304687" stop-color="#BC4DFF"/>
<stop offset="0.3125" stop-color="#BB4DFF"/>
<stop offset="0.320312" stop-color="#BB4DFF"/>
<stop offset="0.328125" stop-color="#BA4DFF"/>
<stop offset="0.335937" stop-color="#BA4CFF"/>
<stop offset="0.34375" stop-color="#B94CFF"/>
<stop offset="0.351562" stop-color="#B94CFF"/>
<stop offset="0.359375" stop-color="#B84CFF"/>
<stop offset="0.367187" stop-color="#B84CFF"/>
<stop offset="0.375" stop-color="#B74CFF"/>
<stop offset="0.382812" stop-color="#B74CFF"/>
<stop offset="0.390625" stop-color="#B64CFF"/>
<stop offset="0.398437" stop-color="#B64CFF"/>
<stop offset="0.40625" stop-color="#B54BFF"/>
<stop offset="0.414062" stop-color="#B54BFF"/>
<stop offset="0.421875" stop-color="#B44BFF"/>
<stop offset="0.429688" stop-color="#B44BFF"/>
<stop offset="0.4375" stop-color="#B34BFF"/>
<stop offset="0.443712" stop-color="#B34BFF"/>
<stop offset="0.445312" stop-color="#B34BFF"/>
<stop offset="0.453125" stop-color="#B24BFF"/>
<stop offset="0.460938" stop-color="#B24BFF"/>
<stop offset="0.46875" stop-color="#B14BFF"/>
<stop offset="0.476562" stop-color="#B14BFF"/>
<stop offset="0.484375" stop-color="#B04AFF"/>
<stop offset="0.492188" stop-color="#B04AFF"/>
<stop offset="0.5" stop-color="#AF4AFF"/>
<stop offset="0.507812" stop-color="#AF4AFF"/>
<stop offset="0.515625" stop-color="#AE4AFF"/>
<stop offset="0.523438" stop-color="#AE4AFF"/>
<stop offset="0.53125" stop-color="#AD4AFF"/>
<stop offset="0.539062" stop-color="#AD4AFF"/>
<stop offset="0.546875" stop-color="#AC4AFF"/>
<stop offset="0.554687" stop-color="#AC49FF"/>
<stop offset="0.556288" stop-color="#AB49FF"/>
<stop offset="0.5625" stop-color="#AB49FF"/>
<stop offset="0.570312" stop-color="#AB49FF"/>
<stop offset="0.578125" stop-color="#AA49FF"/>
<stop offset="0.585938" stop-color="#AA49FF"/>
<stop offset="0.59375" stop-color="#A949FF"/>
<stop offset="0.601562" stop-color="#A949FF"/>
<stop offset="0.609375" stop-color="#A849FF"/>
<stop offset="0.617187" stop-color="#A849FF"/>
<stop offset="0.625" stop-color="#A748FF"/>
<stop offset="0.632812" stop-color="#A748FF"/>
<stop offset="0.640625" stop-color="#A648FF"/>
<stop offset="0.648438" stop-color="#A648FF"/>
<stop offset="0.65625" stop-color="#A548FF"/>
<stop offset="0.664062" stop-color="#A548FF"/>
<stop offset="0.671875" stop-color="#A448FF"/>
<stop offset="0.679687" stop-color="#A448FF"/>
<stop offset="0.6875" stop-color="#A348FF"/>
<stop offset="0.695312" stop-color="#A348FF"/>
<stop offset="0.703125" stop-color="#A247FF"/>
<stop offset="0.710938" stop-color="#A247FF"/>
<stop offset="0.71875" stop-color="#A147FF"/>
<stop offset="0.726562" stop-color="#A147FF"/>
<stop offset="0.734375" stop-color="#A047FF"/>
<stop offset="0.742188" stop-color="#A047FF"/>
<stop offset="0.75" stop-color="#9F47FF"/>
<stop offset="0.757812" stop-color="#9F47FF"/>
<stop offset="0.765625" stop-color="#9E47FF"/>
<stop offset="0.773437" stop-color="#9E46FF"/>
<stop offset="0.78125" stop-color="#9D46FF"/>
<stop offset="0.789062" stop-color="#9D46FF"/>
<stop offset="0.796875" stop-color="#9C46FF"/>
<stop offset="0.804688" stop-color="#9C46FF"/>
<stop offset="0.8125" stop-color="#9B46FF"/>
<stop offset="0.820312" stop-color="#9B46FF"/>
<stop offset="0.828125" stop-color="#9A46FF"/>
<stop offset="0.835938" stop-color="#9A46FF"/>
<stop offset="0.84375" stop-color="#9945FF"/>
<stop offset="0.851563" stop-color="#9945FF"/>
<stop offset="0.859375" stop-color="#9845FF"/>
<stop offset="0.867188" stop-color="#9845FF"/>
<stop offset="0.875" stop-color="#9745FF"/>
<stop offset="0.882812" stop-color="#9745FF"/>
<stop offset="0.890625" stop-color="#9645FF"/>
<stop offset="0.898437" stop-color="#9645FF"/>
<stop offset="0.90625" stop-color="#9545FF"/>
<stop offset="0.914062" stop-color="#9545FF"/>
<stop offset="0.921875" stop-color="#9444FF"/>
<stop offset="0.929688" stop-color="#9444FF"/>
<stop offset="0.9375" stop-color="#9344FF"/>
<stop offset="0.945312" stop-color="#9344FF"/>
<stop offset="0.953125" stop-color="#9244FF"/>
<stop offset="0.960938" stop-color="#9244FF"/>
<stop offset="0.96875" stop-color="#9144FF"/>
<stop offset="0.976563" stop-color="#9144FF"/>
<stop offset="0.984375" stop-color="#9044FF"/>
<stop offset="0.992188" stop-color="#9043FF"/>
<stop offset="1" stop-color="#8F43FF"/>
</linearGradient>
<linearGradient id="paint7_linear_542_32" x1="352.181" y1="333.473" x2="295.864" y2="356.589" gradientUnits="userSpaceOnUse">
<stop stop-color="#AA49FF"/>
<stop offset="0.0078125" stop-color="#AA49FF"/>
<stop offset="0.015625" stop-color="#A949FF"/>
<stop offset="0.0234375" stop-color="#A949FF"/>
<stop offset="0.03125" stop-color="#A849FF"/>
<stop offset="0.0390625" stop-color="#A849FF"/>
<stop offset="0.046875" stop-color="#A749FF"/>
<stop offset="0.0546875" stop-color="#A748FF"/>
<stop offset="0.0625" stop-color="#A648FF"/>
<stop offset="0.0703125" stop-color="#A648FF"/>
<stop offset="0.078125" stop-color="#A548FF"/>
<stop offset="0.0859375" stop-color="#A548FF"/>
<stop offset="0.09375" stop-color="#A448FF"/>
<stop offset="0.101562" stop-color="#A448FF"/>
<stop offset="0.109375" stop-color="#A348FF"/>
<stop offset="0.117187" stop-color="#A348FF"/>
<stop offset="0.125" stop-color="#A247FF"/>
<stop offset="0.132813" stop-color="#A247FF"/>
<stop offset="0.140625" stop-color="#A147FF"/>
<stop offset="0.148437" stop-color="#A147FF"/>
<stop offset="0.15625" stop-color="#A047FF"/>
<stop offset="0.164062" stop-color="#A047FF"/>
<stop offset="0.171875" stop-color="#9F47FF"/>
<stop offset="0.179687" stop-color="#9F47FF"/>
<stop offset="0.1875" stop-color="#9E47FF"/>
<stop offset="0.195312" stop-color="#9E46FF"/>
<stop offset="0.203125" stop-color="#9D46FF"/>
<stop offset="0.210937" stop-color="#9D46FF"/>
<stop offset="0.21875" stop-color="#9C46FF"/>
<stop offset="0.226562" stop-color="#9C46FF"/>
<stop offset="0.234375" stop-color="#9B46FF"/>
<stop offset="0.242187" stop-color="#9B46FF"/>
<stop offset="0.25" stop-color="#9A46FF"/>
<stop offset="0.257812" stop-color="#9A46FF"/>
<stop offset="0.265625" stop-color="#9946FF"/>
<stop offset="0.273437" stop-color="#9945FF"/>
<stop offset="0.28125" stop-color="#9845FF"/>
<stop offset="0.289062" stop-color="#9845FF"/>
<stop offset="0.296875" stop-color="#9745FF"/>
<stop offset="0.304687" stop-color="#9745FF"/>
<stop offset="0.3125" stop-color="#9645FF"/>
<stop offset="0.320312" stop-color="#9645FF"/>
<stop offset="0.328125" stop-color="#9545FF"/>
<stop offset="0.335937" stop-color="#9545FF"/>
<stop offset="0.34375" stop-color="#9444FF"/>
<stop offset="0.351562" stop-color="#9444FF"/>
<stop offset="0.359375" stop-color="#9344FF"/>
<stop offset="0.367187" stop-color="#9344FF"/>
<stop offset="0.375" stop-color="#9244FF"/>
<stop offset="0.382812" stop-color="#9244FF"/>
<stop offset="0.390625" stop-color="#9144FF"/>
<stop offset="0.398437" stop-color="#9144FF"/>
<stop offset="0.40625" stop-color="#9044FF"/>
<stop offset="0.414062" stop-color="#9043FF"/>
<stop offset="0.421875" stop-color="#8F43FF"/>
<stop offset="0.429687" stop-color="#8F43FF"/>
<stop offset="0.4375" stop-color="#8E43FF"/>
<stop offset="0.443689" stop-color="#8E43FF"/>
<stop offset="0.445312" stop-color="#8E43FF"/>
<stop offset="0.453125" stop-color="#8D43FF"/>
<stop offset="0.460937" stop-color="#8D43FF"/>
<stop offset="0.46875" stop-color="#8C43FF"/>
<stop offset="0.476562" stop-color="#8C43FF"/>
<stop offset="0.484375" stop-color="#8B43FF"/>
<stop offset="0.492187" stop-color="#8B42FF"/>
<stop offset="0.5" stop-color="#8A42FF"/>
<stop offset="0.507812" stop-color="#8A42FF"/>
<stop offset="0.515625" stop-color="#8942FF"/>
<stop offset="0.523438" stop-color="#8942FF"/>
<stop offset="0.53125" stop-color="#8842FF"/>
<stop offset="0.539062" stop-color="#8842FF"/>
<stop offset="0.546875" stop-color="#8742FF"/>
<stop offset="0.554688" stop-color="#8742FF"/>
<stop offset="0.556311" stop-color="#8641FF"/>
<stop offset="0.5625" stop-color="#8641FF"/>
<stop offset="0.570312" stop-color="#8641FF"/>
<stop offset="0.578125" stop-color="#8541FF"/>
<stop offset="0.585937" stop-color="#8541FF"/>
<stop offset="0.59375" stop-color="#8441FF"/>
<stop offset="0.601562" stop-color="#8441FF"/>
<stop offset="0.609375" stop-color="#8341FF"/>
<stop offset="0.617187" stop-color="#8341FF"/>
<stop offset="0.625" stop-color="#8241FF"/>
<stop offset="0.632812" stop-color="#8240FF"/>
<stop offset="0.640625" stop-color="#8140FF"/>
<stop offset="0.648438" stop-color="#8140FF"/>
<stop offset="0.65625" stop-color="#8040FF"/>
<stop offset="0.664062" stop-color="#8040FF"/>
<stop offset="0.671875" stop-color="#7F40FF"/>
<stop offset="0.679687" stop-color="#7F40FF"/>
<stop offset="0.6875" stop-color="#7E40FF"/>
<stop offset="0.695312" stop-color="#7E40FF"/>
<stop offset="0.703125" stop-color="#7D40FF"/>
<stop offset="0.710937" stop-color="#7D3FFF"/>
<stop offset="0.71875" stop-color="#7C3FFF"/>
<stop offset="0.726562" stop-color="#7C3FFF"/>
<stop offset="0.734375" stop-color="#7B3FFF"/>
<stop offset="0.75" stop-color="#7B3FFF"/>
<stop offset="1" stop-color="#7B3FFF"/>
</linearGradient>
<clipPath id="clip0_542_32">
<rect width="43" height="43" fill="white" transform="translate(254 499)"/>
</clipPath>
<clipPath id="clip1_542_32">
<rect width="43" height="43" fill="white" transform="translate(160 223)"/>
</clipPath>
<clipPath id="clip2_542_32">
<rect width="104" height="104" fill="white" transform="translate(272 270)"/>
</clipPath>
</defs>
</svg>
