<svg width="45" height="45" viewBox="0 0 45 45" fill="none" xmlns="http://www.w3.org/2000/svg">
<path d="M34.4531 37.9688H10.545C4.73057 37.9688 0 33.2382 0 27.4238V13.0079C0 7.19223 4.73132 2.46091 10.5469 2.46091H12.6562C13.627 2.46091 14.4141 3.24792 14.4141 4.21876C14.4141 5.1896 13.627 5.97661 12.6562 5.97661H10.5469C6.66981 5.97661 3.51562 9.1308 3.51562 13.0079V27.4238C3.51562 31.2997 6.66905 34.4531 10.545 34.4531H34.4531C38.3301 34.4531 41.4843 31.299 41.4843 27.4219V13.0079C41.4843 9.1308 38.3301 5.97661 34.4531 5.97661H32.2558C31.285 5.97661 30.498 5.1896 30.498 4.21876C30.498 3.24792 31.285 2.46091 32.2558 2.46091H34.4531C40.2686 2.46091 44.9999 7.19223 44.9999 13.0078V27.4218C45 33.2374 40.2687 37.9688 34.4531 37.9688ZM32.6953 43.2422C32.6953 42.2713 31.9083 41.4843 30.9374 41.4843H14.0625C13.0916 41.4843 12.3046 42.2713 12.3046 43.2422C12.3046 44.213 13.0916 44.9999 14.0625 44.9999H30.9375C31.9084 45 32.6953 44.213 32.6953 43.2422ZM22.5 29.3702C19.1076 29.3702 16.3476 26.6102 16.3476 23.2178V11.3636C16.3476 8.96787 17.0503 6.64806 18.3794 4.65479C18.3837 4.6483 18.3881 4.64172 18.3926 4.63515L21.0507 0.762902C21.3786 0.285403 21.9207 0 22.5 0C23.0793 0 23.6214 0.285403 23.9493 0.762986L26.6074 4.63523C26.6119 4.64172 26.6163 4.64821 26.6207 4.65487C27.9497 6.64806 28.6524 8.96795 28.6524 11.3636V23.2178C28.6524 26.6102 25.8924 29.3702 22.5 29.3702ZM21.298 6.61485C20.3595 8.02644 19.8633 9.66823 19.8633 11.3637V23.2179C19.8633 24.6718 21.0462 25.8546 22.5001 25.8546C23.954 25.8546 25.1368 24.6718 25.1368 23.2179V11.3636C25.1368 9.66823 24.6407 8.02644 23.7022 6.61477L22.5002 4.86374L21.298 6.61485Z" fill="white"/>
</svg>
