<svg width="40" height="34" viewBox="0 0 40 34" fill="none" xmlns="http://www.w3.org/2000/svg">
<path d="M2.45233 14.8071C2.45233 14.8071 20.1434 7.34345 26.2789 4.71532C28.631 3.66415 36.6072 0.300132 36.6072 0.300132C36.6072 0.300132 40.2887 -1.1715 39.9818 2.40261C39.8795 3.87438 39.0615 9.02531 38.2434 14.5968C37.0162 22.4811 35.6869 31.1011 35.6869 31.1011C35.6869 31.1011 35.4824 33.519 33.744 33.9394C32.0056 34.3599 29.1422 32.4678 28.631 32.0472C28.2218 31.7319 20.9614 27.0013 18.3027 24.6886C17.5868 24.0579 16.7688 22.7965 18.4048 21.3247C22.0863 17.8557 26.4834 13.5457 29.1422 10.8125C30.3694 9.55097 31.5964 6.60756 26.4834 10.1817C19.223 15.3327 12.0648 20.1684 12.0648 20.1684C12.0648 20.1684 10.4286 21.2195 7.36082 20.2734C4.29291 19.3275 0.713797 18.0659 0.713797 18.0659C0.713797 18.0659 -1.74031 16.4891 2.45233 14.8071Z" fill="white"/>
</svg>
