<svg width="44" height="38" viewBox="0 0 44 38" fill="none" xmlns="http://www.w3.org/2000/svg">
<path d="M27.8093 36.1276L43.0932 27.5572C43.9297 27.0882 44.2441 25.9989 43.7955 25.1245C43.3468 24.2499 42.305 23.9212 41.4685 24.3903L26.1845 32.9607C23.5643 34.4301 20.4358 34.4301 17.8087 32.957L2.52479 24.4765C1.68613 24.0112 0.645815 24.3447 0.200941 25.2212C-0.244098 26.0978 0.0748463 27.1854 0.913333 27.6507L16.1905 36.1275C18.0096 37.1476 20.0044 37.6575 21.9999 37.6575C23.9949 37.6576 25.9907 37.1475 27.8093 36.1276ZM27.8093 28.0419L43.0932 19.4715C43.9297 19.0024 44.2441 17.9132 43.7955 17.0387C43.3468 16.1641 42.305 15.8356 41.4685 16.3045L26.1845 24.8749C23.5643 26.3444 20.4358 26.3442 17.8087 24.8712L2.52479 16.3907C1.68613 15.9254 0.645815 16.259 0.200941 17.1355C-0.244098 18.0121 0.0748463 19.0997 0.913333 19.5649L16.1905 28.0418C18.0096 29.0618 20.0044 29.5717 21.9999 29.5717C23.9949 29.5717 25.9907 29.0618 27.8093 28.0419Z" fill="white"/>
<path d="M27.8093 20.1276L43.0932 11.5572C43.9297 11.0882 44.2441 9.99891 43.7955 9.12447C43.3468 8.24994 42.305 7.92123 41.4685 8.39029L26.1845 16.9607C23.5643 18.4301 20.4358 18.4301 17.8087 16.957L2.52479 8.47645C1.68613 8.01118 0.645815 8.34471 0.200941 9.22123C-0.244098 10.0978 0.0748463 11.1854 0.913333 11.6507L16.1905 20.1275C18.0096 21.1476 20.0044 21.6575 21.9999 21.6575C23.9949 21.6576 25.9907 21.1475 27.8093 20.1276ZM27.8093 12.0419L43.0932 3.47146C43.9297 3.0024 44.2441 1.91316 43.7955 1.03871C43.3468 0.164095 42.305 -0.164437 41.4685 0.304536L26.1845 8.87494C23.5643 10.3444 20.4358 10.3442 17.8087 8.87124L2.52479 0.390699C1.68613 -0.0745691 0.645815 0.25896 0.200941 1.13547C-0.244098 2.01207 0.0748463 3.09968 0.913333 3.56495L16.1905 12.0418C18.0096 13.0618 20.0044 13.5717 21.9999 13.5717C23.9949 13.5717 25.9907 13.0618 27.8093 12.0419Z" fill="white"/>
</svg>
